<mxfile host="app.diagrams.net" agent="Mozilla/5.0 (Windows NT 10.0; Win64; x64) AppleWebKit/537.36 (KHTML, like Gecko) Chrome/127.0.0.0 Safari/537.36" version="24.7.6" pages="2">
  <diagram name="Page-1" id="y2vha-sQEwUO__ylBviv">
    <mxGraphModel dx="1434" dy="780" grid="1" gridSize="10" guides="1" tooltips="1" connect="1" arrows="1" fold="1" page="1" pageScale="1" pageWidth="850" pageHeight="1100" math="0" shadow="0">
      <root>
        <mxCell id="0" />
        <mxCell id="1" parent="0" />
        <mxCell id="x3Ah9TazF13iL2Uz1pW2-19" style="edgeStyle=orthogonalEdgeStyle;rounded=0;orthogonalLoop=1;jettySize=auto;html=1;exitX=0;exitY=0.5;exitDx=0;exitDy=0;entryX=1;entryY=0.5;entryDx=0;entryDy=0;" edge="1" parent="1" source="x3Ah9TazF13iL2Uz1pW2-1" target="x3Ah9TazF13iL2Uz1pW2-2">
          <mxGeometry relative="1" as="geometry" />
        </mxCell>
        <mxCell id="x3Ah9TazF13iL2Uz1pW2-20" style="edgeStyle=orthogonalEdgeStyle;rounded=0;orthogonalLoop=1;jettySize=auto;html=1;exitX=0;exitY=0.5;exitDx=0;exitDy=0;entryX=1;entryY=0.5;entryDx=0;entryDy=0;" edge="1" parent="1" source="x3Ah9TazF13iL2Uz1pW2-1" target="x3Ah9TazF13iL2Uz1pW2-3">
          <mxGeometry relative="1" as="geometry" />
        </mxCell>
        <mxCell id="x3Ah9TazF13iL2Uz1pW2-21" style="edgeStyle=orthogonalEdgeStyle;rounded=0;orthogonalLoop=1;jettySize=auto;html=1;exitX=0;exitY=0.5;exitDx=0;exitDy=0;entryX=1;entryY=0.5;entryDx=0;entryDy=0;" edge="1" parent="1" source="x3Ah9TazF13iL2Uz1pW2-1" target="x3Ah9TazF13iL2Uz1pW2-4">
          <mxGeometry relative="1" as="geometry" />
        </mxCell>
        <mxCell id="x3Ah9TazF13iL2Uz1pW2-1" value="FMBench on Amazon SageMaker Notebook" style="rounded=0;whiteSpace=wrap;html=1;fillColor=#ffe6cc;strokeColor=#d79b00;" vertex="1" parent="1">
          <mxGeometry x="250" y="160" width="120" height="60" as="geometry" />
        </mxCell>
        <mxCell id="x3Ah9TazF13iL2Uz1pW2-2" value="LLMs hosted on Amazon Bedrock" style="rounded=0;whiteSpace=wrap;html=1;fillColor=#f5f5f5;fontColor=#333333;strokeColor=#666666;" vertex="1" parent="1">
          <mxGeometry x="40" y="80" width="120" height="60" as="geometry" />
        </mxCell>
        <mxCell id="x3Ah9TazF13iL2Uz1pW2-3" value="LLMs hosted on Amazon SageMaker" style="rounded=0;whiteSpace=wrap;html=1;fillColor=#dae8fc;strokeColor=#6c8ebf;" vertex="1" parent="1">
          <mxGeometry x="40" y="160" width="120" height="60" as="geometry" />
        </mxCell>
        <mxCell id="x3Ah9TazF13iL2Uz1pW2-4" value="LLMs hosted on Amazon EKS" style="rounded=0;whiteSpace=wrap;html=1;fillColor=#d5e8d4;strokeColor=#82b366;" vertex="1" parent="1">
          <mxGeometry x="40" y="240" width="120" height="60" as="geometry" />
        </mxCell>
        <mxCell id="x3Ah9TazF13iL2Uz1pW2-7" value="" style="endArrow=none;html=1;rounded=0;exitX=1;exitY=1;exitDx=0;exitDy=0;" edge="1" parent="1" source="fiXtwMIg6qrkt5U_o3Tw-2">
          <mxGeometry width="50" height="50" relative="1" as="geometry">
            <mxPoint x="420" y="330" as="sourcePoint" />
            <mxPoint x="420" y="70" as="targetPoint" />
          </mxGeometry>
        </mxCell>
        <mxCell id="x3Ah9TazF13iL2Uz1pW2-23" style="edgeStyle=orthogonalEdgeStyle;rounded=0;orthogonalLoop=1;jettySize=auto;html=1;exitX=0;exitY=0.5;exitDx=0;exitDy=0;entryX=1;entryY=0.5;entryDx=0;entryDy=0;" edge="1" source="x3Ah9TazF13iL2Uz1pW2-26" target="x3Ah9TazF13iL2Uz1pW2-27" parent="1">
          <mxGeometry relative="1" as="geometry" />
        </mxCell>
        <mxCell id="x3Ah9TazF13iL2Uz1pW2-24" style="edgeStyle=orthogonalEdgeStyle;rounded=0;orthogonalLoop=1;jettySize=auto;html=1;exitX=0;exitY=0.5;exitDx=0;exitDy=0;entryX=1;entryY=0.5;entryDx=0;entryDy=0;" edge="1" source="x3Ah9TazF13iL2Uz1pW2-26" target="x3Ah9TazF13iL2Uz1pW2-28" parent="1">
          <mxGeometry relative="1" as="geometry" />
        </mxCell>
        <mxCell id="x3Ah9TazF13iL2Uz1pW2-25" style="edgeStyle=orthogonalEdgeStyle;rounded=0;orthogonalLoop=1;jettySize=auto;html=1;exitX=0;exitY=0.5;exitDx=0;exitDy=0;entryX=1;entryY=0.5;entryDx=0;entryDy=0;" edge="1" source="x3Ah9TazF13iL2Uz1pW2-26" target="x3Ah9TazF13iL2Uz1pW2-29" parent="1">
          <mxGeometry relative="1" as="geometry" />
        </mxCell>
        <mxCell id="x3Ah9TazF13iL2Uz1pW2-26" value="FMBench on Amazon EC2" style="rounded=0;whiteSpace=wrap;html=1;fillColor=#ffe6cc;strokeColor=#d79b00;" vertex="1" parent="1">
          <mxGeometry x="670" y="160" width="120" height="60" as="geometry" />
        </mxCell>
        <mxCell id="x3Ah9TazF13iL2Uz1pW2-27" value="LLMs hosted on Amazon Bedrock" style="rounded=0;whiteSpace=wrap;html=1;fillColor=#f5f5f5;fontColor=#333333;strokeColor=#666666;" vertex="1" parent="1">
          <mxGeometry x="460" y="80" width="120" height="60" as="geometry" />
        </mxCell>
        <mxCell id="x3Ah9TazF13iL2Uz1pW2-28" value="LLMs hosted on Amazon SageMaker" style="rounded=0;whiteSpace=wrap;html=1;fillColor=#dae8fc;strokeColor=#6c8ebf;" vertex="1" parent="1">
          <mxGeometry x="460" y="160" width="120" height="60" as="geometry" />
        </mxCell>
        <mxCell id="x3Ah9TazF13iL2Uz1pW2-29" value="LLMs hosted on Amazon EKS" style="rounded=0;whiteSpace=wrap;html=1;fillColor=#d5e8d4;strokeColor=#82b366;" vertex="1" parent="1">
          <mxGeometry x="460" y="240" width="120" height="60" as="geometry" />
        </mxCell>
        <mxCell id="fiXtwMIg6qrkt5U_o3Tw-1" value="&lt;b&gt;&lt;font style=&quot;font-size: 18px;&quot;&gt;FMBench deployment configurations&lt;/font&gt;&lt;/b&gt;&lt;div&gt;&lt;b&gt;&lt;font style=&quot;font-size: 15px;&quot;&gt;(LLMs are deployed by FMBench&lt;/font&gt;&lt;font style=&quot;font-size: 18px;&quot;&gt;)&lt;/font&gt;&lt;/b&gt;&lt;/div&gt;" style="text;html=1;align=center;verticalAlign=middle;whiteSpace=wrap;rounded=0;" vertex="1" parent="1">
          <mxGeometry x="230" y="10" width="360" height="30" as="geometry" />
        </mxCell>
        <mxCell id="fiXtwMIg6qrkt5U_o3Tw-2" value="&lt;font style=&quot;font-size: 14px;&quot;&gt;Quickstart: FMBench is setup through AWS CloudFormation&lt;/font&gt;" style="text;html=1;align=center;verticalAlign=middle;whiteSpace=wrap;rounded=0;" vertex="1" parent="1">
          <mxGeometry x="30" y="330" width="390" height="30" as="geometry" />
        </mxCell>
        <mxCell id="fiXtwMIg6qrkt5U_o3Tw-3" value="&lt;font style=&quot;font-size: 14px;&quot;&gt;DIY: FMBench is setup manually on Amazon EC2&lt;/font&gt;" style="text;html=1;align=center;verticalAlign=middle;whiteSpace=wrap;rounded=0;" vertex="1" parent="1">
          <mxGeometry x="430" y="330" width="390" height="30" as="geometry" />
        </mxCell>
      </root>
    </mxGraphModel>
  </diagram>
  <diagram id="8b_q89SXEdJDEv58rKXf" name="Page-2">
    <mxGraphModel dx="1434" dy="780" grid="1" gridSize="10" guides="1" tooltips="1" connect="1" arrows="1" fold="1" page="1" pageScale="1" pageWidth="850" pageHeight="1100" math="0" shadow="0">
      <root>
        <mxCell id="0" />
        <mxCell id="1" parent="0" />
        <mxCell id="nYGEgryt7huoeiD7q8NB-3" value="" style="rounded=0;whiteSpace=wrap;html=1;" vertex="1" parent="1">
          <mxGeometry x="235" y="110" width="180" height="280" as="geometry" />
        </mxCell>
        <mxCell id="sXA2JP5MA5aewUyW0-Ma-2" value="LLM-1 hosted on Amazon EC2 instance 1" style="rounded=0;whiteSpace=wrap;html=1;fillColor=#fff2cc;strokeColor=#d6b656;" vertex="1" parent="1">
          <mxGeometry x="265" y="140" width="120" height="60" as="geometry" />
        </mxCell>
        <mxCell id="sXA2JP5MA5aewUyW0-Ma-3" style="edgeStyle=orthogonalEdgeStyle;rounded=0;orthogonalLoop=1;jettySize=auto;html=1;entryX=1;entryY=0.5;entryDx=0;entryDy=0;" edge="1" parent="1" source="sXA2JP5MA5aewUyW0-Ma-6" target="sXA2JP5MA5aewUyW0-Ma-2">
          <mxGeometry relative="1" as="geometry" />
        </mxCell>
        <mxCell id="sXA2JP5MA5aewUyW0-Ma-4" style="edgeStyle=orthogonalEdgeStyle;rounded=0;orthogonalLoop=1;jettySize=auto;html=1;" edge="1" parent="1" source="sXA2JP5MA5aewUyW0-Ma-6" target="sXA2JP5MA5aewUyW0-Ma-7">
          <mxGeometry relative="1" as="geometry" />
        </mxCell>
        <mxCell id="nYGEgryt7huoeiD7q8NB-4" value="" style="rounded=0;whiteSpace=wrap;html=1;" vertex="1" parent="1">
          <mxGeometry x="470" y="110" width="180" height="280" as="geometry" />
        </mxCell>
        <mxCell id="sXA2JP5MA5aewUyW0-Ma-5" style="edgeStyle=orthogonalEdgeStyle;rounded=0;orthogonalLoop=1;jettySize=auto;html=1;entryX=1;entryY=0.5;entryDx=0;entryDy=0;" edge="1" parent="1" source="sXA2JP5MA5aewUyW0-Ma-6" target="sXA2JP5MA5aewUyW0-Ma-8">
          <mxGeometry relative="1" as="geometry" />
        </mxCell>
        <mxCell id="sXA2JP5MA5aewUyW0-Ma-6" value="FMBench on Amazon EC2" style="rounded=0;whiteSpace=wrap;html=1;fillColor=#ffe6cc;strokeColor=#d79b00;" vertex="1" parent="1">
          <mxGeometry x="500" y="220" width="120" height="60" as="geometry" />
        </mxCell>
        <mxCell id="sXA2JP5MA5aewUyW0-Ma-7" value="LLM-2 hosted on Amazon EC2 instance 2" style="rounded=0;whiteSpace=wrap;html=1;fillColor=#fff2cc;strokeColor=#d6b656;" vertex="1" parent="1">
          <mxGeometry x="265" y="220" width="120" height="60" as="geometry" />
        </mxCell>
        <mxCell id="sXA2JP5MA5aewUyW0-Ma-8" value="LLM-N hosted on Amazon EC2 instance N" style="rounded=0;whiteSpace=wrap;html=1;fillColor=#fff2cc;strokeColor=#d6b656;" vertex="1" parent="1">
          <mxGeometry x="265" y="310" width="120" height="60" as="geometry" />
        </mxCell>
        <mxCell id="nYGEgryt7huoeiD7q8NB-2" value="&lt;b&gt;&lt;font style=&quot;font-size: 18px;&quot;&gt;FMBench client-server setup on Amazon EC2&lt;/font&gt;&lt;/b&gt;&lt;div&gt;&lt;b&gt;&lt;font style=&quot;font-size: 15px;&quot;&gt;(FMBench installed on all EC2 instance, LLMs are deployed by FMBench&lt;/font&gt;&lt;font style=&quot;font-size: 18px;&quot;&gt;)&lt;/font&gt;&lt;/b&gt;&lt;/div&gt;" style="text;html=1;align=center;verticalAlign=middle;whiteSpace=wrap;rounded=0;" vertex="1" parent="1">
          <mxGeometry x="250" y="40" width="390" height="30" as="geometry" />
        </mxCell>
        <mxCell id="nYGEgryt7huoeiD7q8NB-5" value="&lt;font style=&quot;font-size: 14px;&quot;&gt;LLM hosting AWS account (server)&lt;/font&gt;" style="text;html=1;align=center;verticalAlign=middle;whiteSpace=wrap;rounded=0;" vertex="1" parent="1">
          <mxGeometry x="265" y="400" width="115" height="30" as="geometry" />
        </mxCell>
        <mxCell id="nYGEgryt7huoeiD7q8NB-6" value="&lt;font style=&quot;font-size: 14px;&quot;&gt;Benchmarking AWS account (client)&lt;/font&gt;" style="text;html=1;align=center;verticalAlign=middle;whiteSpace=wrap;rounded=0;" vertex="1" parent="1">
          <mxGeometry x="500" y="401" width="130" height="30" as="geometry" />
        </mxCell>
      </root>
    </mxGraphModel>
  </diagram>
</mxfile>
